<svg width="420" height="110" viewBox="0 0 420 110" fill="none" xmlns="http://www.w3.org/2000/svg" role="img" aria-labelledby="moldwiseLogoTitle moldwiseLogoDesc">
  <title id="moldwiseLogoTitle">MoldWise logo</title>
  <desc id="moldwiseLogoDesc">MoldWise logo with a realistic organic mold-like stain mark and premium wordmark.</desc>

  <defs>
    <filter id="shadowSoft" x="-25%" y="-25%" width="160%" height="160%">
      <feDropShadow dx="0" dy="10" stdDeviation="10" flood-color="#000000" flood-opacity="0.18"/>
    </filter>

    <linearGradient id="moldGradientMain" x1="14" y1="18" x2="102" y2="96" gradientUnits="userSpaceOnUse">
      <stop offset="0%" stop-color="#A9CDBF"/>
      <stop offset="52%" stop-color="#7FA899"/>
      <stop offset="100%" stop-color="#587C6E"/>
    </linearGradient>

    <linearGradient id="moldGradientDark" x1="20" y1="20" x2="90" y2="85" gradientUnits="userSpaceOnUse">
      <stop offset="0%" stop-color="#243646"/>
      <stop offset="100%" stop-color="#182633"/>
    </linearGradient>
  </defs>

  <g filter="url(#shadowSoft)">
    <path
      d="M28.9 28.7C34.6 21.8 43.1 17.6 52.5 18.2C57.8 18.5 62.4 20.1 66.8 22.5C71.1 24.8 74.8 28 79.8 28.3C84.8 28.7 89.3 31.1 92.4 35C95.8 39.3 97.6 44.7 96.8 49.9C96 56.1 92 60.9 89.6 66.4C87.5 71.2 86.4 76.7 82.9 80.6C79.2 84.6 73.5 86.7 68.2 87.2C62.4 87.8 56.8 86.6 51.2 86.2C44.7 85.8 38.1 86.6 32.3 83.8C26.7 81.1 22.5 76.3 20.4 70.4C18.3 64.5 18.7 58 16.4 52.2C13.8 45.5 13 38.1 16.6 32C19.1 27.8 24.4 34.2 28.9 28.7Z"
      fill="url(#moldGradientDark)"
    />

    <path
      d="M29.6 32.4C34.2 26.1 41.5 22.3 49.4 22.1C54.4 22 58.8 23.4 63.2 25.4C67.6 27.4 71.7 30.2 76.3 31.1C81.2 32 85.4 34.2 88.2 37.9C91.2 41.9 92.8 46.9 92.2 51.5C91.4 57.1 87.4 61.3 85.3 66.3C83.5 70.5 82.5 75.3 79.6 78.7C76.4 82.5 71.4 84.6 66.4 85.1C60.9 85.7 55.6 84.6 50.3 84.1C44.3 83.6 38.1 84.2 32.8 81.6C27.8 79.1 24 74.8 22.2 69.5C20.4 64.3 20.8 58.5 18.8 53.4C16.8 48.2 16.8 42.2 19.3 37.3C21.2 33.6 25 30.7 29.6 32.4Z"
      fill="url(#moldGradientMain)"
    />

    <path
      d="M33.7 40.4C37.1 35.9 42.4 33 47.9 32.8C52.6 32.7 56.6 34.7 59.7 37.4C62.8 40 64.6 43.8 67.5 46.5C70.1 49 73.9 50.4 75.1 54C76.4 57.8 74.5 62.2 71.4 64.7C68.3 67.3 64.3 68.3 60.4 68.9C56.1 69.5 51.6 70 47.6 68.4C43.2 66.7 40.1 63 36.9 59.5C33.8 56.1 29.8 52.8 29.2 48C28.8 45 31.3 43 33.7 40.4Z"
      fill="#5E8E7D"
      opacity="0.9"
    />

    <path
      d="M61.8 28.3C66.2 28.8 70.6 30.5 74 33.4C76.7 35.8 79.3 39.1 79.4 42.9C79.5 46.2 77.2 48.9 74.4 50.5C71.3 52.3 67.4 52.9 63.8 52.2C60 51.4 57 48.8 54.8 45.7C52.9 43 51.3 39.8 51.9 36.5C52.7 31.8 57.5 27.8 61.8 28.3Z"
      fill="#6F9C8B"
      opacity="0.92"
    />

    <path
      d="M41.8 31.2C43.7 30.5 46.2 31.1 47.2 32.9C48.1 34.4 47.5 36.5 46.2 37.7C44.8 39 42.6 39.6 40.8 38.8C39.1 38 37.9 36.1 38.2 34.3C38.5 32.8 40.1 31.8 41.8 31.2Z"
      fill="#C8DDD5"
      opacity="0.95"
    />

    <path
      d="M69.4 55.6C71.1 54.9 73.1 55.2 74.2 56.6C75.3 57.9 75.4 59.9 74.5 61.4C73.5 63.1 71.4 64.2 69.5 63.8C67.8 63.4 66.5 61.7 66.5 59.9C66.5 58.1 67.8 56.3 69.4 55.6Z"
      fill="#B7D8CC"
      opacity="0.9"
    />

    <path
      d="M52.6 56.8C54.5 56 57.1 56.5 58.2 58.3C59.2 59.9 58.7 62.2 57.2 63.5C55.7 64.8 53.4 65.2 51.6 64.3C49.8 63.4 48.7 61.3 49.2 59.4C49.5 58.2 50.9 57.4 52.6 56.8Z"
      fill="#D6E6E0"
      opacity="0.8"
    />

    <path
      d="M28.8 32.8C33.5 26.4 40.8 22.6 48.9 22.4C54 22.3 58.6 23.7 63.1 25.8C67.6 27.9 71.7 30.7 76.4 31.6C81.1 32.4 85.4 34.5 88.2 38.2C91.2 42.1 92.8 47 92.2 51.6C91.5 57 87.8 61.2 85.6 66.2C83.7 70.6 82.6 75.5 79.5 79C76.2 82.7 71.1 84.8 66 85.3C60.7 85.8 55.5 84.7 50.3 84.2C44.2 83.7 38 84.3 32.7 81.7C27.8 79.2 24 74.9 22.2 69.7C20.4 64.5 20.8 58.7 18.8 53.5C16.8 48.3 16.8 42.3 19.3 37.5C21.1 34 24.5 31.2 28.8 32.8Z"
      stroke="#8FBFAE"
      stroke-width="2.1"
      stroke-linejoin="round"
      opacity="0.9"
    />
  </g>

  <g>
    <text
      x="118"
      y="57"
      fill="#F4F7F6"
      font-family="Manrope, Inter, Arial, sans-serif"
      font-size="36"
      font-weight="800"
      letter-spacing="-1.35"
    >Mold</text>

    <text
      x="210"
      y="57"
      fill="#8FBFAE"
      font-family="Manrope, Inter, Arial, sans-serif"
      font-size="36"
      font-weight="800"
      letter-spacing="-1.35"
    >Wise</text>

    <text
      x="120"
      y="78"
      fill="#B9C5C7"
      font-family="Manrope, Inter, Arial, sans-serif"
      font-size="10.5"
      font-weight="700"
      letter-spacing="1.55"
    >INDEPENDENT PROVIDER MATCHING PLATFORM</text>

    <path
      d="M120 65.5H323"
      stroke="#8FBFAE"
      stroke-width="1.35"
      stroke-linecap="round"
      opacity="0.38"
    />
  </g>
</svg>